#!OML:ASF E:\Steps\Project 1\Capture day 1\Session 2\Subject.ASF
:FULLY-SPECIFIED
:DEGREES
76
root 9.23174 16.3174 17.9029 -154.006 -3.00754 179.875
lowerback -30.2366 -1.66556 -6.14594
upperback -2.75408 -1.05284 -0.171434
thorax 12.8267 -1.18887 2.64845
lowerneck 4.62556 -4.40678 -4.00799
upperneck -14.7082 -5.76839 10.1899
head -4.71629 -3.577 4.14853
rclavicle 5.96354e-016 1.86858e-014
rhumerus -33.5881 -21.511 -79.5713
rradius 25.3753
rwrist 5.3996
rhand -9.82103 -50.8877
rfingers 7.12502
rthumb 16.156 -80.2344
lclavicle 5.96354e-016 1.86858e-014
lhumerus -26.5 6.1523 83.7948
lradius 16.05
lwrist -15.3193
lhand -22.0689 -12.8236
lfingers 7.12502
lthumb 4.34225 17.1118
rfemur -25.0966 9.05159 17.2273
rtibia 8.99375
rfoot -18.4076 -5.35542
rtoes -32.1653
lfemur -24.0765 -8.67029 -18.3298
ltibia 7.97069
lfoot -8.41698 4.25032
ltoes -42.0773
77
root 9.23216 16.3179 17.9021 -154.023 -2.99266 179.902
lowerback -30.252 -1.66252 -6.10814
upperback -2.73826 -1.05818 -0.165046
thorax 12.8523 -1.18935 2.63265
lowerneck 4.65212 -4.42049 -4.00888
upperneck -14.7401 -5.79035 10.1548
head -4.73021 -3.58643 4.14064
rclavicle 6.4605e-016 -1.15295e-014
rhumerus -33.5371 -21.3044 -79.6809
rradius 25.3871
rwrist 5.08082
rhand -10.2809 -51.4272
rfingers 7.12502
rthumb 15.7131 -80.8093
lclavicle 6.4605e-016 -1.15295e-014
lhumerus -26.5336 6.22919 83.7492
lradius 15.9859
lwrist -15.3544
lhand -22.2901 -13.0309
lfingers 7.12502
lthumb 4.12866 16.9088
rfemur -25.0868 9.14979 17.2467
rtibia 8.97485
rfoot -18.3799 -5.4456
rtoes -32.3578
lfemur -24.0391 -8.6315 -18.3127
ltibia 7.94079
lfoot -8.376 4.33739
ltoes -42.5343
78
root 9.23262 16.3167 17.9023 -154.008 -2.98358 179.9
lowerback -30.2727 -1.67033 -6.09061
upperback -2.7109 -1.0682 -0.159033
thorax 12.8938 -1.19279 2.62544
lowerneck 4.59455 -4.43401 -4.01994
upperneck -14.7827 -5.81759 10.1078
head -4.73271 -3.59775 4.12849
rclavicle 6.95746e-016 1.70955e-014
rhumerus -33.3836 -21.3347 -79.708
rradius 25.2756
rwrist 5.04954
rhand -10.6487 -51.7786
rfingers 7.12502
rthumb 15.3589 -81.1881
lclavicle 6.95746e-016 1.70955e-014
lhumerus -26.4617 6.53584 83.6403
lradius 15.8284
lwrist -15.4994
lhand -22.2153 -13.2192
lfingers 7.12502
lthumb 4.20084 16.7191
rfemur -25.1221 9.19587 17.2472
rtibia 8.99354
rfoot -18.2899 -5.55682
rtoes -32.7541
lfemur -24.048 -8.58282 -18.3224
ltibia 7.93058
lfoot -8.38783 4.27046
ltoes -42.4362
79
root 9.23295 16.3173 17.9042 -154.003 -2.97614 179.86
lowerback -30.2601 -1.65973 -6.11564
upperback -2.71255 -1.04444 -0.179745
thorax 12.8837 -1.18278 2.62603
lowerneck 4.58161 -4.45924 -4.0096
upperneck -14.7479 -5.85144 10.0907
head -4.71834 -3.61159 4.12093
rclavicle -5.01931e-015 -2.78299e-015
rhumerus -33.4258 -21.5987 -79.5653
rradius 25.1929
rwrist 5.37329
rhand -10.571 -51.5908
rfingers 7.12502
rthumb 15.4338 -80.9946
lclavicle -5.01931e-015 -2.78299e-015
lhumerus -26.4463 6.70776 83.5455
lradius 15.7257
lwrist -15.591
lhand -21.9141 -13.3246
lfingers 7.12502
lthumb 4.49174 16.6077
rfemur -25.1501 9.1269 17.2146
rtibia 9.0453
rfoot -18.2173 -5.52774
rtoes -32.8895
lfemur -24.0787 -8.50896 -18.3894
ltibia 7.96226
lfoot -8.37938 4.20258
ltoes -42.8199
80
root 9.23388 16.3183 17.9042 -154.032 -2.95042 179.811
lowerback -30.3031 -1.68248 -6.23109
upperback -2.67302 -1.02953 -0.145059
thorax 12.9474 -1.1825 2.73054
lowerneck 4.53437 -4.45291 -4.03289
upperneck -14.6957 -5.84603 10.0568
head -4.69514 -3.60184 4.11033
rclavicle -7.65321e-015 1.03368e-014
rhumerus -33.443 -21.6961 -79.4021
rradius 25.1408
rwrist 5.52934
rhand -10.5528 -51.2893
rfingers 7.12502
rthumb 15.4513 -80.6918
lclavicle -7.65321e-015 1.03368e-014
lhumerus -26.412 6.91945 83.5246
lradius 15.6498
lwrist -15.7021
lhand -21.7813 -13.6302
lfingers 7.12502
lthumb 4.61998 16.2994
rfemur -25.1024 9.0099 17.1882
rtibia 9.03329
rfoot -18.3067 -5.42405
rtoes -32.9273
lfemur -24.0811 -8.47303 -18.4717
ltibia 8.04329
lfoot -8.39101 4.13766
ltoes -42.6532
81
root 9.23591 16.3185 17.9037 -154.045 -2.92811 179.777
lowerback -30.3504 -1.71575 -6.29495
upperback -2.63352 -1.04345 -0.130445
thorax 13.0151 -1.19276 2.77422
lowerneck 4.47397 -4.44462 -4.04739
upperneck -14.654 -5.83929 10.0227
head -4.67336 -3.59302 4.09819
rclavicle -4.32357e-015 -3.97569e-016
rhumerus -33.3979 -21.7127 -79.374
rradius 25.1155
rwrist 5.62365
rhand -10.5374 -51.4527
rfingers 7.12502
rthumb 15.4661 -80.8541
lclavicle -4.32357e-015 -3.97569e-016
lhumerus -26.3955 7.14958 83.4392
lradius 15.6159
lwrist -15.8343
lhand -21.8958 -13.719
lfingers 7.12502
lthumb 4.50938 16.213
rfemur -25.0601 8.97578 17.1582
rtibia 8.96903
rfoot -18.3542 -5.38263
rtoes -32.9218
lfemur -24.1087 -8.55858 -18.4924
ltibia 8.16526
lfoot -8.47281 4.14962
ltoes -41.9524
82
root 9.23799 16.3191 17.9053 -154.036 -2.93829 179.79
lowerback -30.3618 -1.68856 -6.24042
upperback -2.64174 -1.02131 -0.189211
thorax 13.0069 -1.17973 2.68951
lowerneck 4.57016 -4.48672 -3.98618
upperneck -14.667 -5.88801 10.0414
head -4.69155 -3.62254 4.09956
rclavicle -1.93815e-015 -9.54166e-015
rhumerus -33.4528 -21.8589 -79.3896
rradius 25.0913
rwrist 5.72491
rhand -10.3882 -51.4626
rfingers 7.12502
rthumb 15.6098 -80.8527
lclavicle -1.93815e-015 -9.54166e-015
lhumerus -26.4661 7.00222 83.3553
lradius 15.679
lwrist -15.7495
lhand -22.0048 -13.3293
lfingers 7.12502
lthumb 4.40412 16.6049
rfemur -25.0783 9.02819 17.1687
rtibia 8.96344
rfoot -18.2752 -5.43725
rtoes -32.9918
lfemur -24.1588 -8.58622 -18.4567
ltibia 8.25987
lfoot -8.56861 4.25259
ltoes -42.6033
83
root 9.23989 16.3185 17.9087 -153.969 -2.88577 179.819
lowerback -30.4178 -1.6448 -6.2236
upperback -2.65327 -0.968665 -0.212912
thorax 13.0126 -1.15677 2.67375
lowerneck 4.62825 -4.52672 -3.94599
upperneck -14.7113 -5.93911 10.039
head -4.71275 -3.65177 4.09782
rclavicle 1.963e-014 -1.47101e-014
rhumerus -33.4365 -22.0224 -79.3362
rradius 24.9949
rwrist 5.82832
rhand -10.3485 -51.374
rfingers 7.12502
rthumb 15.648 -80.7612
lclavicle 1.963e-014 -1.47101e-014
lhumerus -26.4893 6.80768 83.3679
lradius 15.7103
lwrist -15.6169
lhand -22.0012 -13.0598
lfingers 7.12502
lthumb 4.40757 16.8744
rfemur -25.209 8.97966 17.2067
rtibia 9.02222
rfoot -18.1964 -5.33905
rtoes -33.2164
lfemur -24.2517 -8.62311 -18.3993
ltibia 8.29049
lfoot -8.62919 4.42032
ltoes -43.099
84
root 9.24183 16.318 17.9123 -153.928 -2.81968 179.852
lowerback -30.364 -1.61904 -6.18095
upperback -2.69464 -0.960374 -0.215757
thorax 12.9409 -1.15064 2.65205
lowerneck 4.67903 -4.55262 -3.96986
upperneck -14.7413 -5.9764 10.0303
head -4.72738 -3.66929 4.10326
rclavicle -1.73937e-015 1.27222e-014
rhumerus -33.4017 -22.0299 -79.3425
rradius 24.9106
rwrist 5.87316
rhand -10.4343 -51.4976
rfingers 7.12502
rthumb 15.5654 -80.8912
lclavicle -1.73937e-015 1.27222e-014
lhumerus -26.5315 6.94482 83.2874
lradius 15.6223
lwrist -15.7439
lhand -21.9765 -13.0942
lfingers 7.12502
lthumb 4.43148 16.8395
rfemur -25.2843 8.83162 17.2677
rtibia 9.00217
rfoot -18.1452 -5.12537
rtoes -33.3959
lfemur -24.2889 -8.85863 -18.2883
ltibia 8.25911
lfoot -8.66216 4.6978
ltoes -42.5357
85
root 9.2432 16.3183 17.9122 -153.981 -2.84778 179.889
lowerback -30.3061 -1.63356 -6.18936
upperback -2.6943 -0.983348 -0.161003
thorax 12.9197 -1.16016 2.70851
lowerneck 4.68463 -4.5513 -4.0092
upperneck -14.7202 -5.97875 9.99475
head -4.72169 -3.66375 4.09799
rclavicle -2.68359e-015 -2.10712e-014
rhumerus -33.3961 -21.9672 -79.2696
rradius 24.8776
rwrist 5.75632
rhand -10.398 -51.3788
rfingers 7.12502
rthumb 15.6003 -80.7697
lclavicle -2.68359e-015 -2.10712e-014
lhumerus -26.5373 7.27218 83.2178
lradius 15.4747
lwrist -16.1136
lhand -21.9315 -13.0692
lfingers 7.12502
lthumb 4.4749 16.8635
rfemur -25.1779 8.79872 17.3357
rtibia 8.9217
rfoot -18.2175 -5.10906
rtoes -33.3466
lfemur -24.1763 -8.90507 -18.2341
ltibia 8.14278
lfoot -8.61061 4.7351
ltoes -42.32
